<svg xmlns="http://www.w3.org/2000/svg" viewBox="0 0 200 60"><defs><style>.a{fill:none;}.b{fill:#4d4d4d;}.c{fill:#45aaf2;}.d{fill:#fb4d40;}</style></defs><title>logo</title><rect class="a" width="200" height="60"/><path class="b" d="M67.36,48.48a3.36,3.36,0,0,0-1.94.7,14.17,14.17,0,0,1-8.58,3.09,12.35,12.35,0,0,1-6.66-1.9,13.92,13.92,0,0,1-4.85-5.17,15.25,15.25,0,0,1,0-14.36,13.88,13.88,0,0,1,4.84-5.2,12.36,12.36,0,0,1,6.66-1.9,13,13,0,0,1,4.69.71,13.67,13.67,0,0,1,3.73,2.36,3.2,3.2,0,0,0,2.06.76,2.92,2.92,0,0,0,2-.78,2.61,2.61,0,0,0,.89-2A3.39,3.39,0,0,0,70,23.44,2.82,2.82,0,0,0,69,22.32,19.78,19.78,0,0,0,63.4,19a19.48,19.48,0,0,0-6.57-1,18.62,18.62,0,0,0-9.77,2.68,19.37,19.37,0,0,0-7,7.24,20.38,20.38,0,0,0-2.54,10A20.61,20.61,0,0,0,40.1,48.11a19.13,19.13,0,0,0,7,7.24A18.75,18.75,0,0,0,56.84,58a19.06,19.06,0,0,0,12.24-4.34l0,0a3,3,0,0,0,.94-2.2,3,3,0,0,0-.76-2.11A2.55,2.55,0,0,0,67.36,48.48Z"/><path class="b" d="M161.55,54.16,147.88,21.55A2.92,2.92,0,0,0,145,19.48a3,3,0,0,0-2.9,2L128.44,54.08a3.74,3.74,0,0,0-.28,1.32,3.06,3.06,0,0,0,.86,2.16,2.87,2.87,0,0,0,2.19.93,3,3,0,0,0,1.67-.51,3.28,3.28,0,0,0,1.19-1.4l2.62-6.43h16.64l2.57,6.43A2.9,2.9,0,0,0,157.06,58a3.12,3.12,0,0,0,1.69.5,3,3,0,0,0,2.2-.89,2.94,2.94,0,0,0,.89-2.15A3.64,3.64,0,0,0,161.55,54.16Zm-10.38-9.32H138.84l6.23-15.18Z"/><circle class="c" cx="80.43" cy="6.47" r="4.47"/><circle class="d" cx="120.1" cy="6.47" r="4.47"/><path class="b" d="M120.16,14.72a3.41,3.41,0,0,0-3,1.87c-6,9-12,13.4-17.78,13.09C91,29.24,84.78,19.12,83.61,17.06A3.41,3.41,0,0,0,77,18.13V55.08a3.41,3.41,0,1,0,6.82,0V27.79c3.63,3.9,8.81,7.8,15.2,8.14l.93,0c5.79,0,11.43-2.95,16.84-8.77v27.9a3.41,3.41,0,0,0,6.82,0V18.13A3.41,3.41,0,0,0,120.16,14.72Z"/><path class="b" d="M186,36.17l12.33-16.44a3.69,3.69,0,0,0,.65-2,3,3,0,0,0-.75-2,2.62,2.62,0,0,0-2-.86,2.92,2.92,0,0,0-2.25.93l-12,16L170.46,15.75a2.61,2.61,0,0,0-2.25-.93,2.68,2.68,0,0,0-2.12.92,3.19,3.19,0,0,0-.78,2.15,3,3,0,0,0,.6,1.86l11.88,16.47L165.2,53a3.48,3.48,0,0,0-.71,2.13,3,3,0,0,0,.75,2,2.67,2.67,0,0,0,2.09.86,3,3,0,0,0,2.19-.93l12.32-16.33,11.62,16.12A2.92,2.92,0,0,0,195.88,58a2.69,2.69,0,0,0,2.13-.92,3.12,3.12,0,0,0,.78-2.1,3.52,3.52,0,0,0-.65-2Z"/><path class="b" d="M31.94,20.07a15.93,15.93,0,0,0-6-6h0a16.66,16.66,0,0,0-8.42-2.18,16.66,16.66,0,0,0-8.42,2.18,15.92,15.92,0,0,0-6,6A16.81,16.81,0,0,0,1,28.51V41.78a2.85,2.85,0,0,0,.06.62V54.94a3,3,0,0,0,.83,2.17A2.88,2.88,0,0,0,4.06,58a3,3,0,0,0,3.06-3.06V40.69a15,15,0,0,0,3.79,2.73A15.5,15.5,0,0,0,18,45.07a15.73,15.73,0,0,0,14-8.15,17,17,0,0,0,2.11-8.41A16.82,16.82,0,0,0,31.94,20.07Zm-3.77,8.44a11.35,11.35,0,0,1-1.39,5.6A10.14,10.14,0,0,1,23,38a10.64,10.64,0,0,1-5.42,1.41,10,10,0,0,1-7-2.61,10.4,10.4,0,0,1-3.42-6.66A1.53,1.53,0,0,0,7,29.72c0-.21,0-.57,0-1.21a11.35,11.35,0,0,1,1.39-5.6A10.65,10.65,0,0,1,23,19a10.36,10.36,0,0,1,3.81,3.92A11.35,11.35,0,0,1,28.17,28.51Z"/></svg>